<svg width="170" height="106" viewBox="0 0 170 106" fill="none" xmlns="http://www.w3.org/2000/svg">
<path d="M36.4143 105.75V93.75C37.4143 93.75 38.8643 93.45 40.7643 92.85C42.7643 92.15 44.7643 91.1 46.7643 89.7C48.7643 88.2 50.4643 86.35 51.8643 84.15C53.3643 81.85 54.1143 79.15 54.1143 76.05V-7.15256e-06H66.1143V76.05C66.1143 81.45 65.0143 86.05 62.8143 89.85C60.6143 93.65 57.8643 96.7 54.5643 99C51.2643 101.3 47.9643 103 44.6643 104.1C41.4643 105.2 38.7143 105.75 36.4143 105.75ZM28.9143 105.75C26.7143 105.75 24.0143 105.2 20.8143 104.1C17.6143 102.9 14.4643 101.1 11.3643 98.7C8.36426 96.3 5.81426 93.25 3.71426 89.55C1.61426 85.75 0.564258 81.25 0.564258 76.05V68.7H12.7143V75.45C12.7143 78.65 13.3143 81.45 14.5143 83.85C15.7143 86.15 17.2143 88.05 19.0143 89.55C20.8143 90.95 22.6143 92 24.4143 92.7C26.2143 93.4 27.7143 93.75 28.9143 93.75V105.75ZM118.492 105L77.9924 7.49999V-7.15256e-06H87.8924L123.142 85.5L148.942 27.15H150.442V53.7L127.792 105H118.492ZM77.9924 105V28.95H79.3424L89.9924 54.9V105H77.9924ZM157.792 105V-7.15256e-06H169.792V105H157.792Z" fill="#FFAADE"/>
</svg>
