<svg width="557" height="255" viewBox="0 0 557 255" fill="none" xmlns="http://www.w3.org/2000/svg">
<g clip-path="url(#clip0_15_113)">
<path d="M169.452 74.5125L167.933 176.163L161.896 176.073L163.415 74.4223L169.452 74.5125Z" fill="#2C4557"/>
<path d="M184.293 78.9863V76.9941H199.601V78.9863H193.302V98H190.606V78.9863H184.293ZM202.135 98V75.5H204.625V84.0547C206.285 83.0586 207.901 82.5557 209.474 82.5459C210.997 82.5459 212.257 82.9805 213.253 83.8496C214.259 84.7188 214.762 85.8955 214.762 87.3799V98H212.213V87.3799C212.213 85.7393 211.202 84.9189 209.181 84.9189C207.765 84.9189 206.246 85.4609 204.625 86.5449V98H202.135ZM218.321 90.4414C218.321 88.0391 218.961 86.125 220.24 84.6992C221.52 83.2637 223.209 82.5459 225.309 82.5459C229.488 82.5459 231.578 85.4951 231.578 91.3936H220.812C220.909 92.6338 221.363 93.7422 222.174 94.7188C222.984 95.6855 224.22 96.1689 225.88 96.1689C227.804 96.1689 229.454 95.8516 230.831 95.2168V97.5752C229.327 98.1514 227.784 98.4443 226.202 98.4541C224.825 98.4541 223.619 98.2393 222.584 97.8096C221.559 97.3799 220.738 96.7891 220.123 96.0371C219.518 95.2852 219.063 94.4404 218.761 93.5029C218.468 92.5654 218.321 91.5449 218.321 90.4414ZM220.899 89.416H229C228.863 88.0781 228.492 86.9795 227.887 86.1201C227.281 85.2607 226.402 84.8311 225.25 84.8311C224.107 84.8311 223.136 85.251 222.335 86.0908C221.534 86.9307 221.056 88.0391 220.899 89.416Z" fill="#C49E5B"/>
<path d="M123.177 110.614C126.121 103.741 126.388 96.9868 123.977 90.3497C121.598 83.7288 116.653 78.4816 109.141 74.6079C104.217 72.0689 99.326 70.7453 94.4674 70.6371C89.6087 70.5289 85.2045 71.554 81.2546 73.7124C77.321 75.8392 74.2556 79.0331 72.0584 83.294C70.7889 85.7558 70.0273 88.2398 69.7737 90.7461C69.5201 93.2524 69.7821 95.8047 70.5598 98.4033C71.3852 100.987 72.7181 103.632 74.5585 106.339C76.4467 109.03 78.85 111.808 81.7685 114.672L90.9942 123.744C94.5247 127.203 97.4056 130.527 99.637 133.715C101.868 136.903 103.458 140.02 104.404 143.066C105.399 146.096 105.751 149.094 105.46 152.06C105.185 154.995 104.274 157.962 102.728 160.96C100.124 166.01 96.5106 169.84 91.888 172.451C87.2655 175.061 82.0566 176.291 76.2614 176.139C70.4662 175.988 64.5071 174.333 58.3841 171.176C52.482 168.132 47.8506 164.445 44.4899 160.115C41.1454 155.753 39.115 151.09 38.3986 146.126C37.7301 141.147 38.4587 136.208 40.5845 131.311L43.6144 132.874C41.7816 137.203 41.1953 141.555 41.8555 145.931C42.5157 150.307 44.3545 154.411 47.372 158.245C50.4211 162.095 54.6126 165.395 59.9466 168.146C65.5015 171.01 70.8584 172.554 76.0174 172.777C81.2243 172.985 85.8749 171.947 89.9692 169.663C94.0952 167.396 97.3381 163.974 99.6981 159.398C101.488 155.926 102.302 152.489 102.137 149.088C101.99 145.656 100.811 142.092 98.6019 138.395C96.3927 134.699 93.0835 130.695 88.6743 126.384L79.4485 117.311C73.0791 110.99 69.0178 104.88 67.2649 98.9816C65.5435 93.0996 66.1313 87.3495 69.0284 81.7315C71.4861 76.9656 74.93 73.3477 79.3602 70.8776C83.8067 68.3759 88.7535 67.1511 94.2005 67.2031C99.6791 67.2714 105.18 68.7297 110.703 71.578C116.258 74.4425 120.565 78.0618 123.623 82.4358C126.682 86.8098 128.441 91.5726 128.901 96.7243C129.361 101.876 128.463 107.026 126.207 112.176L123.177 110.614Z" fill="#C49E5B"/>
<path d="M28 67L69.6882 157.896" stroke="#C49E5B" stroke-width="2" stroke-linecap="round"/>
<path d="M100.581 72L67.3354 168.43" stroke="#2C4557" stroke-width="11" stroke-linecap="round"/>
<path d="M20 71L65.0877 168.037" stroke="#2C4557" stroke-width="11" stroke-linecap="round"/>
<path d="M92.3467 97.8365L103.371 98.9462C103.557 101.344 104.138 103.497 105.112 105.403C106.086 107.309 107.346 108.971 108.893 110.388C110.44 111.805 112.218 112.935 114.226 113.78C116.212 114.622 118.358 115.16 120.667 115.392C124.836 115.812 128.675 115.139 132.184 113.375C135.669 111.608 138.57 108.795 140.885 104.935C143.178 101.074 144.618 96.2219 145.206 90.3802C145.799 84.4914 145.357 79.4264 143.88 75.1853C142.38 70.9417 140.086 67.6175 136.996 65.2127C133.907 62.8078 130.302 61.398 126.18 60.983C123.895 60.753 121.697 60.8411 119.586 61.2472C117.449 61.6745 115.483 62.4164 113.687 63.473C111.891 64.5295 110.327 65.883 108.995 67.5334C107.637 69.205 106.618 71.1725 105.939 73.4359L94.9183 72.2908C95.8652 68.7933 97.3372 65.6341 99.3344 62.8133C101.306 60.0137 103.719 57.6632 106.576 55.7617C109.406 53.8814 112.565 52.5219 116.052 51.6832C119.539 50.8445 123.273 50.6255 127.253 51.0263C133.519 51.657 138.952 53.703 143.553 57.1641C148.151 60.6488 151.584 65.313 153.851 71.1565C156.094 76.9977 156.828 83.7696 156.053 91.4722C155.275 99.1983 153.195 105.687 149.811 110.938C146.424 116.212 142.132 120.087 136.934 122.562C131.733 125.06 126.012 125.995 119.77 125.366C115.93 124.98 112.406 124.066 109.196 122.625C105.96 121.204 103.118 119.3 100.67 116.912C98.219 114.548 96.2751 111.759 94.8379 108.545C93.3983 105.354 92.5679 101.785 92.3467 97.8365Z" fill="#2C4557"/>
<path d="M189.895 107.636L200.69 138.247H201.116L211.912 107.636H216.528L203.176 144H198.631L185.278 107.636H189.895ZM226.596 107.636V144H222.192V107.636H226.596ZM264.26 107.636V144H259.999L240.183 115.449H239.828V144H235.425V107.636H239.686L259.573 136.259H259.928V107.636H264.26ZM273.071 144V107.636H295.017V111.543H277.475V123.83H293.881V127.736H277.475V140.094H295.301V144H273.071ZM317.017 144V107.636H329.304C332.156 107.636 334.488 108.151 336.299 109.181C338.122 110.199 339.472 111.578 340.348 113.318C341.224 115.058 341.662 117 341.662 119.142C341.662 121.285 341.224 123.232 340.348 124.984C339.484 126.736 338.146 128.132 336.335 129.174C334.524 130.204 332.204 130.719 329.375 130.719H320.568V126.812H329.233C331.186 126.812 332.754 126.475 333.938 125.8C335.122 125.126 335.98 124.214 336.512 123.066C337.057 121.906 337.329 120.598 337.329 119.142C337.329 117.686 337.057 116.384 336.512 115.236C335.98 114.088 335.116 113.188 333.92 112.537C332.725 111.874 331.138 111.543 329.162 111.543H321.42V144H317.017ZM348.755 144V107.636H370.701V111.543H353.158V123.83H369.565V127.736H353.158V140.094H370.985V144H348.755ZM409.32 125.818C409.32 129.653 408.627 132.968 407.242 135.761C405.857 138.555 403.957 140.709 401.543 142.224C399.128 143.74 396.37 144.497 393.268 144.497C390.167 144.497 387.409 143.74 384.994 142.224C382.58 140.709 380.68 138.555 379.295 135.761C377.91 132.968 377.217 129.653 377.217 125.818C377.217 121.983 377.91 118.669 379.295 115.875C380.68 113.081 382.58 110.927 384.994 109.412C387.409 107.897 390.167 107.139 393.268 107.139C396.37 107.139 399.128 107.897 401.543 109.412C403.957 110.927 405.857 113.081 407.242 115.875C408.627 118.669 409.32 121.983 409.32 125.818ZM405.058 125.818C405.058 122.67 404.531 120.012 403.478 117.846C402.436 115.68 401.022 114.04 399.234 112.928C397.459 111.815 395.47 111.259 393.268 111.259C391.067 111.259 389.072 111.815 387.285 112.928C385.509 114.04 384.095 115.68 383.041 117.846C382 120.012 381.479 122.67 381.479 125.818C381.479 128.967 382 131.624 383.041 133.79C384.095 135.957 385.509 137.596 387.285 138.709C389.072 139.821 391.067 140.378 393.268 140.378C395.47 140.378 397.459 139.821 399.234 138.709C401.022 137.596 402.436 135.957 403.478 133.79C404.531 131.624 405.058 128.967 405.058 125.818ZM416.724 144V107.636H429.011C431.863 107.636 434.195 108.151 436.006 109.181C437.829 110.199 439.179 111.578 440.055 113.318C440.931 115.058 441.369 117 441.369 119.142C441.369 121.285 440.931 123.232 440.055 124.984C439.191 126.736 437.853 128.132 436.042 129.174C434.231 130.204 431.911 130.719 429.082 130.719H420.275V126.812H428.94C430.893 126.812 432.461 126.475 433.645 125.8C434.829 125.126 435.687 124.214 436.219 123.066C436.764 121.906 437.036 120.598 437.036 119.142C437.036 117.686 436.764 116.384 436.219 115.236C435.687 114.088 434.823 113.188 433.627 112.537C432.432 111.874 430.845 111.543 428.869 111.543H421.127V144H416.724ZM448.462 144V107.636H452.865V140.094H469.769V144H448.462ZM476.587 144V107.636H498.533V111.543H480.99V123.83H497.397V127.736H480.99V140.094H498.817V144H476.587Z" fill="#2C4557"/>
<path d="M198.574 159.636C198.446 158.557 197.928 157.719 197.018 157.122C196.109 156.526 194.994 156.227 193.673 156.227C192.707 156.227 191.862 156.384 191.138 156.696C190.42 157.009 189.859 157.438 189.455 157.985C189.057 158.532 188.858 159.153 188.858 159.849C188.858 160.432 188.996 160.933 189.273 161.352C189.558 161.763 189.92 162.108 190.36 162.385C190.8 162.655 191.262 162.879 191.745 163.056C192.228 163.227 192.672 163.365 193.077 163.472L195.293 164.068C195.861 164.217 196.493 164.423 197.189 164.686C197.892 164.949 198.563 165.308 199.202 165.762C199.849 166.21 200.381 166.785 200.8 167.488C201.219 168.191 201.429 169.054 201.429 170.077C201.429 171.256 201.12 172.321 200.502 173.273C199.891 174.224 198.996 174.981 197.817 175.542C196.646 176.103 195.222 176.384 193.545 176.384C191.983 176.384 190.63 176.131 189.487 175.627C188.35 175.123 187.455 174.42 186.802 173.518C186.156 172.616 185.79 171.568 185.705 170.375H188.432C188.503 171.199 188.78 171.881 189.263 172.42C189.753 172.953 190.371 173.351 191.116 173.614C191.869 173.869 192.679 173.997 193.545 173.997C194.554 173.997 195.46 173.834 196.262 173.507C197.065 173.173 197.7 172.712 198.169 172.122C198.638 171.526 198.872 170.83 198.872 170.034C198.872 169.31 198.67 168.72 198.265 168.266C197.86 167.811 197.327 167.442 196.667 167.158C196.006 166.874 195.293 166.625 194.526 166.412L191.841 165.645C190.136 165.155 188.787 164.455 187.793 163.546C186.798 162.637 186.301 161.447 186.301 159.977C186.301 158.756 186.631 157.69 187.292 156.781C187.96 155.865 188.854 155.155 189.977 154.651C191.106 154.139 192.366 153.884 193.759 153.884C195.165 153.884 196.415 154.136 197.509 154.64C198.602 155.137 199.469 155.819 200.108 156.685C200.754 157.552 201.095 158.536 201.131 159.636H198.574ZM212.08 176.341C210.602 176.341 209.306 175.989 208.191 175.286C207.083 174.583 206.217 173.599 205.592 172.335C204.974 171.071 204.665 169.594 204.665 167.903C204.665 166.199 204.974 164.711 205.592 163.44C206.217 162.168 207.083 161.181 208.191 160.478C209.306 159.775 210.602 159.423 212.08 159.423C213.557 159.423 214.85 159.775 215.958 160.478C217.073 161.181 217.939 162.168 218.557 163.44C219.182 164.711 219.494 166.199 219.494 167.903C219.494 169.594 219.182 171.071 218.557 172.335C217.939 173.599 217.073 174.583 215.958 175.286C214.85 175.989 213.557 176.341 212.08 176.341ZM212.08 174.082C213.202 174.082 214.125 173.795 214.85 173.219C215.574 172.644 216.11 171.888 216.458 170.95C216.806 170.013 216.98 168.997 216.98 167.903C216.98 166.81 216.806 165.79 216.458 164.846C216.11 163.901 215.574 163.138 214.85 162.555C214.125 161.973 213.202 161.682 212.08 161.682C210.958 161.682 210.034 161.973 209.31 162.555C208.585 163.138 208.049 163.901 207.701 164.846C207.353 165.79 207.179 166.81 207.179 167.903C207.179 168.997 207.353 170.013 207.701 170.95C208.049 171.888 208.585 172.644 209.31 173.219C210.034 173.795 210.958 174.082 212.08 174.082ZM225.847 154.182V176H223.332V154.182H225.847ZM240.764 169.31V159.636H243.278V176H240.764V173.23H240.594C240.21 174.061 239.613 174.768 238.804 175.35C237.994 175.925 236.971 176.213 235.736 176.213C234.713 176.213 233.804 175.989 233.008 175.542C232.213 175.087 231.588 174.406 231.133 173.496C230.679 172.58 230.452 171.426 230.452 170.034V159.636H232.966V169.864C232.966 171.057 233.3 172.009 233.967 172.719C234.642 173.429 235.501 173.784 236.545 173.784C237.17 173.784 237.806 173.624 238.452 173.305C239.106 172.985 239.653 172.495 240.093 171.835C240.54 171.174 240.764 170.332 240.764 169.31ZM255 159.636V161.767H246.52V159.636H255ZM248.991 155.716H251.505V171.312C251.505 172.023 251.608 172.555 251.814 172.911C252.027 173.259 252.297 173.493 252.624 173.614C252.958 173.727 253.309 173.784 253.679 173.784C253.956 173.784 254.183 173.77 254.36 173.741C254.538 173.706 254.68 173.678 254.787 173.656L255.298 175.915C255.127 175.979 254.89 176.043 254.584 176.107C254.279 176.178 253.892 176.213 253.423 176.213C252.713 176.213 252.017 176.06 251.335 175.755C250.66 175.45 250.099 174.984 249.652 174.359C249.211 173.734 248.991 172.946 248.991 171.994V155.716ZM258.782 176V159.636H261.296V176H258.782ZM260.06 156.909C259.57 156.909 259.147 156.742 258.792 156.408C258.444 156.075 258.27 155.673 258.27 155.205C258.27 154.736 258.444 154.335 258.792 154.001C259.147 153.667 259.57 153.5 260.06 153.5C260.55 153.5 260.969 153.667 261.317 154.001C261.672 154.335 261.85 154.736 261.85 155.205C261.85 155.673 261.672 156.075 261.317 156.408C260.969 156.742 260.55 156.909 260.06 156.909ZM272.548 176.341C271.071 176.341 269.775 175.989 268.66 175.286C267.552 174.583 266.686 173.599 266.061 172.335C265.443 171.071 265.134 169.594 265.134 167.903C265.134 166.199 265.443 164.711 266.061 163.44C266.686 162.168 267.552 161.181 268.66 160.478C269.775 159.775 271.071 159.423 272.548 159.423C274.026 159.423 275.318 159.775 276.426 160.478C277.541 161.181 278.408 162.168 279.026 163.44C279.651 164.711 279.963 166.199 279.963 167.903C279.963 169.594 279.651 171.071 279.026 172.335C278.408 173.599 277.541 174.583 276.426 175.286C275.318 175.989 274.026 176.341 272.548 176.341ZM272.548 174.082C273.671 174.082 274.594 173.795 275.318 173.219C276.043 172.644 276.579 171.888 276.927 170.95C277.275 170.013 277.449 168.997 277.449 167.903C277.449 166.81 277.275 165.79 276.927 164.846C276.579 163.901 276.043 163.138 275.318 162.555C274.594 161.973 273.671 161.682 272.548 161.682C271.426 161.682 270.503 161.973 269.779 162.555C269.054 163.138 268.518 163.901 268.17 164.846C267.822 165.79 267.648 166.81 267.648 167.903C267.648 168.997 267.822 170.013 268.17 170.95C268.518 171.888 269.054 172.644 269.779 173.219C270.503 173.795 271.426 174.082 272.548 174.082ZM286.315 166.156V176H283.801V159.636H286.23V162.193H286.443C286.827 161.362 287.409 160.695 288.19 160.19C288.972 159.679 289.98 159.423 291.216 159.423C292.324 159.423 293.293 159.651 294.124 160.105C294.955 160.553 295.602 161.234 296.063 162.151C296.525 163.06 296.756 164.21 296.756 165.602V176H294.241V165.773C294.241 164.487 293.908 163.486 293.24 162.768C292.572 162.044 291.656 161.682 290.491 161.682C289.689 161.682 288.972 161.856 288.339 162.204C287.714 162.552 287.221 163.06 286.859 163.727C286.496 164.395 286.315 165.205 286.315 166.156ZM312.941 163.301L310.682 163.94C310.54 163.564 310.331 163.198 310.054 162.843C309.784 162.481 309.415 162.183 308.946 161.948C308.477 161.714 307.877 161.597 307.145 161.597C306.144 161.597 305.309 161.827 304.642 162.289C303.981 162.744 303.651 163.322 303.651 164.026C303.651 164.651 303.878 165.144 304.333 165.506C304.787 165.869 305.498 166.17 306.464 166.412L308.893 167.009C310.356 167.364 311.446 167.907 312.163 168.638C312.881 169.363 313.239 170.297 313.239 171.44C313.239 172.378 312.969 173.216 312.43 173.955C311.897 174.693 311.151 175.276 310.192 175.702C309.233 176.128 308.118 176.341 306.847 176.341C305.178 176.341 303.797 175.979 302.703 175.254C301.609 174.53 300.917 173.472 300.626 172.08L303.012 171.483C303.239 172.364 303.669 173.024 304.301 173.464C304.94 173.905 305.775 174.125 306.805 174.125C307.976 174.125 308.907 173.876 309.596 173.379C310.292 172.875 310.64 172.271 310.64 171.568C310.64 171 310.441 170.524 310.043 170.141C309.645 169.75 309.035 169.459 308.211 169.267L305.483 168.628C303.985 168.273 302.884 167.722 302.181 166.977C301.485 166.224 301.137 165.283 301.137 164.153C301.137 163.23 301.396 162.413 301.915 161.703C302.44 160.993 303.154 160.435 304.056 160.031C304.965 159.626 305.995 159.423 307.145 159.423C308.765 159.423 310.036 159.778 310.959 160.489C311.89 161.199 312.55 162.136 312.941 163.301Z" fill="#C49E5B"/>
<path d="M17.1023 213V198.455H25.1989V199.278H17.9901V205.308H24.7656V206.132H17.9901V212.176H25.3693V213H17.1023ZM28.5742 213V202.091H29.4194V203.739H29.5046C29.7129 203.189 30.0728 202.754 30.5842 202.432C31.0955 202.11 31.7111 201.949 32.4308 201.949C33.2215 201.949 33.8583 202.138 34.3413 202.517C34.829 202.896 35.1793 203.41 35.3924 204.058H35.4705C35.6836 203.419 36.0647 202.908 36.614 202.524C37.168 202.141 37.8498 201.949 38.6594 201.949C39.7153 201.949 40.5202 202.283 41.0742 202.95C41.6329 203.613 41.9123 204.522 41.9123 205.678V213H41.0458V205.678C41.0458 204.768 40.828 204.054 40.3924 203.533C39.9568 203.012 39.3176 202.751 38.4748 202.751C37.5752 202.751 36.8839 203.033 36.4009 203.597C35.918 204.16 35.6765 204.877 35.6765 205.749V213H34.81V205.621C34.81 204.773 34.5969 204.084 34.1708 203.554C33.7447 203.019 33.1055 202.751 32.2532 202.751C31.6755 202.751 31.176 202.884 30.7546 203.149C30.3379 203.414 30.0136 203.779 29.7816 204.243C29.5543 204.707 29.4407 205.24 29.4407 205.841V213H28.5742ZM45.5078 217.091V202.091H46.353V204.527H46.4595C46.63 204.058 46.8691 203.627 47.1768 203.234C47.4893 202.841 47.8752 202.527 48.3345 202.29C48.7985 202.048 49.343 201.928 49.968 201.928C50.8487 201.928 51.6158 202.169 52.2692 202.652C52.9226 203.135 53.4292 203.803 53.7891 204.655C54.1489 205.502 54.3288 206.475 54.3288 207.574C54.3288 208.672 54.1465 209.648 53.782 210.5C53.4221 211.348 52.9155 212.015 52.2621 212.503C51.6134 212.986 50.8535 213.227 49.9822 213.227C49.362 213.227 48.8175 213.109 48.3487 212.872C47.8847 212.635 47.4941 212.321 47.1768 211.928C46.8643 211.53 46.6252 211.094 46.4595 210.621H46.3743V217.091H45.5078ZM46.3601 207.567C46.3601 208.495 46.5021 209.326 46.7862 210.06C47.0703 210.789 47.4775 211.366 48.0078 211.793C48.5381 212.214 49.1702 212.425 49.9041 212.425C50.6475 212.425 51.2843 212.212 51.8146 211.786C52.3497 211.355 52.7569 210.772 53.0362 210.038C53.3203 209.304 53.4624 208.481 53.4624 207.567C53.4624 206.653 53.3227 205.831 53.0433 205.102C52.764 204.373 52.3591 203.798 51.8288 203.376C51.2985 202.95 50.657 202.737 49.9041 202.737C49.1607 202.737 48.5239 202.948 47.9936 203.369C47.468 203.786 47.0632 204.359 46.7791 205.088C46.4998 205.812 46.3601 206.639 46.3601 207.567ZM61.3796 213.227C60.48 213.227 59.6798 212.986 58.979 212.503C58.2783 212.015 57.7267 211.345 57.3242 210.493C56.9218 209.641 56.7205 208.67 56.7205 207.581C56.7205 206.487 56.9218 205.517 57.3242 204.669C57.7267 203.817 58.2783 203.147 58.979 202.659C59.6798 202.171 60.48 201.928 61.3796 201.928C62.2792 201.928 63.0794 202.171 63.7802 202.659C64.4809 203.147 65.0326 203.817 65.435 204.669C65.8375 205.521 66.0387 206.492 66.0387 207.581C66.0387 208.67 65.8375 209.641 65.435 210.493C65.0326 211.345 64.4809 212.015 63.7802 212.503C63.0794 212.986 62.2792 213.227 61.3796 213.227ZM61.3796 212.425C62.1419 212.425 62.8072 212.209 63.3754 211.778C63.9483 211.348 64.391 210.765 64.7035 210.031C65.0207 209.297 65.1793 208.481 65.1793 207.581C65.1793 206.681 65.0207 205.867 64.7035 205.138C64.3862 204.404 63.9435 203.821 63.3754 203.391C62.8072 202.955 62.1419 202.737 61.3796 202.737C60.6173 202.737 59.9521 202.955 59.3839 203.391C58.8157 203.821 58.373 204.404 58.0558 205.138C57.7385 205.867 57.5799 206.681 57.5799 207.581C57.5799 208.481 57.7362 209.297 58.0487 210.031C58.3659 210.765 58.8086 211.348 59.3768 211.778C59.9497 212.209 60.6173 212.425 61.3796 212.425ZM71.0316 213L67.7646 202.091H68.6737L71.4862 211.729H71.5643L74.3839 202.091H75.2859L78.0984 211.722H78.1694L80.9819 202.091H81.891L78.6239 213H77.658L74.8739 203.504H74.7816L71.9975 213H71.0316ZM88.473 213.227C87.4882 213.227 86.6312 212.983 85.902 212.496C85.1728 212.008 84.6094 211.34 84.2116 210.493C83.8139 209.645 83.6151 208.679 83.6151 207.595C83.6151 206.506 83.8139 205.536 84.2116 204.683C84.6141 203.831 85.1657 203.159 85.8665 202.666C86.5672 202.174 87.3674 201.928 88.267 201.928C88.8778 201.928 89.4555 202.051 90 202.297C90.5492 202.538 91.0322 202.889 91.4489 203.348C91.8703 203.807 92.1993 204.361 92.4361 205.01C92.6776 205.659 92.7983 206.388 92.7983 207.197V207.737H84.1619V206.949H91.9318C91.9318 206.158 91.7708 205.446 91.4489 204.811C91.1269 204.177 90.6889 203.672 90.1349 203.298C89.581 202.924 88.9583 202.737 88.267 202.737C87.5426 202.737 86.8963 202.941 86.3281 203.348C85.7647 203.75 85.3172 204.295 84.9858 204.982C84.6591 205.668 84.4886 206.435 84.4744 207.283V207.638C84.4744 208.547 84.633 209.364 84.9503 210.088C85.2723 210.808 85.7315 211.378 86.3281 211.8C86.9247 212.216 87.6397 212.425 88.473 212.425C89.0696 212.425 89.5786 212.325 90 212.126C90.4261 211.923 90.7741 211.677 91.044 211.388C91.3139 211.099 91.5175 210.82 91.6548 210.55L92.4432 210.869C92.2775 211.234 92.0194 211.598 91.669 211.963C91.3234 212.323 90.883 212.624 90.348 212.865C89.8177 213.107 89.1927 213.227 88.473 213.227ZM95.7812 213V202.091H96.6264V203.795H96.7045C96.9413 203.237 97.3414 202.789 97.9048 202.453C98.4683 202.112 99.1098 201.942 99.8295 201.942C99.9053 201.942 99.9811 201.942 100.057 201.942C100.133 201.942 100.204 201.944 100.27 201.949V202.822C100.213 202.818 100.144 202.811 100.064 202.801C99.9882 202.787 99.8935 202.78 99.7798 202.78C99.1738 202.78 98.634 202.91 98.1605 203.17C97.6918 203.431 97.3224 203.791 97.0526 204.25C96.7827 204.705 96.6477 205.225 96.6477 205.812V213H95.7812ZM102.64 213V202.091H103.5V213H102.64ZM103.074 200.159C102.884 200.159 102.718 200.093 102.576 199.96C102.439 199.828 102.37 199.667 102.37 199.477C102.37 199.288 102.439 199.127 102.576 198.994C102.714 198.862 102.879 198.795 103.074 198.795C103.263 198.795 103.426 198.862 103.564 198.994C103.706 199.127 103.777 199.288 103.777 199.477C103.777 199.667 103.708 199.828 103.571 199.96C103.433 200.093 103.268 200.159 103.074 200.159ZM107.995 205.926V213H107.129V202.091H107.974V203.817H108.059C108.315 203.253 108.725 202.801 109.288 202.46C109.851 202.119 110.521 201.949 111.298 201.949C112.032 201.949 112.676 202.105 113.23 202.418C113.788 202.73 114.224 203.175 114.537 203.753C114.854 204.326 115.012 205.01 115.012 205.805V213H114.146V205.841C114.146 204.913 113.869 204.167 113.315 203.604C112.766 203.036 112.039 202.751 111.135 202.751C110.529 202.751 109.989 202.884 109.515 203.149C109.042 203.414 108.67 203.786 108.4 204.264C108.13 204.738 107.995 205.292 107.995 205.926ZM122.548 217.318C121.871 217.318 121.262 217.228 120.723 217.048C120.183 216.873 119.724 216.622 119.345 216.295C118.971 215.969 118.684 215.58 118.485 215.131L119.21 214.705C119.371 215.055 119.6 215.367 119.899 215.642C120.197 215.917 120.566 216.132 121.007 216.288C121.452 216.445 121.966 216.523 122.548 216.523C123.599 216.523 124.43 216.25 125.041 215.706C125.656 215.166 125.964 214.338 125.964 213.22V210.507H125.879C125.713 210.981 125.467 211.402 125.14 211.771C124.818 212.136 124.423 212.422 123.954 212.631C123.485 212.839 122.953 212.943 122.356 212.943C121.494 212.943 120.737 212.721 120.083 212.276C119.43 211.83 118.921 211.205 118.556 210.401C118.192 209.591 118.01 208.639 118.01 207.545C118.01 206.452 118.187 205.483 118.542 204.641C118.902 203.793 119.409 203.13 120.062 202.652C120.716 202.169 121.483 201.928 122.363 201.928C122.993 201.928 123.538 202.048 123.997 202.29C124.461 202.527 124.849 202.841 125.162 203.234C125.474 203.627 125.716 204.058 125.886 204.527H125.985V202.091H126.824V213.256C126.824 214.165 126.644 214.92 126.284 215.521C125.929 216.123 125.429 216.572 124.785 216.871C124.146 217.169 123.4 217.318 122.548 217.318ZM122.434 212.141C123.163 212.141 123.791 211.956 124.316 211.587C124.847 211.213 125.254 210.682 125.538 209.996C125.827 209.304 125.971 208.485 125.971 207.538C125.971 206.62 125.832 205.798 125.552 205.074C125.273 204.349 124.868 203.779 124.338 203.362C123.807 202.946 123.173 202.737 122.434 202.737C121.681 202.737 121.04 202.95 120.51 203.376C119.979 203.798 119.572 204.371 119.288 205.095C119.009 205.82 118.869 206.634 118.869 207.538C118.869 208.447 119.011 209.248 119.295 209.939C119.579 210.625 119.986 211.165 120.517 211.558C121.047 211.946 121.686 212.141 122.434 212.141ZM136.094 217.091V202.091H136.939V204.527H137.045C137.216 204.058 137.455 203.627 137.763 203.234C138.075 202.841 138.461 202.527 138.92 202.29C139.384 202.048 139.929 201.928 140.554 201.928C141.435 201.928 142.202 202.169 142.855 202.652C143.509 203.135 144.015 203.803 144.375 204.655C144.735 205.502 144.915 206.475 144.915 207.574C144.915 208.672 144.732 209.648 144.368 210.5C144.008 211.348 143.501 212.015 142.848 212.503C142.199 212.986 141.439 213.227 140.568 213.227C139.948 213.227 139.403 213.109 138.935 212.872C138.471 212.635 138.08 212.321 137.763 211.928C137.45 211.53 137.211 211.094 137.045 210.621H136.96V217.091H136.094ZM136.946 207.567C136.946 208.495 137.088 209.326 137.372 210.06C137.656 210.789 138.063 211.366 138.594 211.793C139.124 212.214 139.756 212.425 140.49 212.425C141.233 212.425 141.87 212.212 142.401 211.786C142.936 211.355 143.343 210.772 143.622 210.038C143.906 209.304 144.048 208.481 144.048 207.567C144.048 206.653 143.909 205.831 143.629 205.102C143.35 204.373 142.945 203.798 142.415 203.376C141.884 202.95 141.243 202.737 140.49 202.737C139.747 202.737 139.11 202.948 138.58 203.369C138.054 203.786 137.649 204.359 137.365 205.088C137.086 205.812 136.946 206.639 136.946 207.567ZM152.164 213.227C151.18 213.227 150.323 212.983 149.593 212.496C148.864 212.008 148.301 211.34 147.903 210.493C147.505 209.645 147.306 208.679 147.306 207.595C147.306 206.506 147.505 205.536 147.903 204.683C148.306 203.831 148.857 203.159 149.558 202.666C150.259 202.174 151.059 201.928 151.958 201.928C152.569 201.928 153.147 202.051 153.691 202.297C154.241 202.538 154.724 202.889 155.14 203.348C155.562 203.807 155.891 204.361 156.127 205.01C156.369 205.659 156.49 206.388 156.49 207.197V207.737H147.853V206.949H155.623C155.623 206.158 155.462 205.446 155.14 204.811C154.818 204.177 154.38 203.672 153.826 203.298C153.272 202.924 152.65 202.737 151.958 202.737C151.234 202.737 150.588 202.941 150.02 203.348C149.456 203.75 149.009 204.295 148.677 204.982C148.35 205.668 148.18 206.435 148.166 207.283V207.638C148.166 208.547 148.324 209.364 148.642 210.088C148.964 210.808 149.423 211.378 150.02 211.8C150.616 212.216 151.331 212.425 152.164 212.425C152.761 212.425 153.27 212.325 153.691 212.126C154.118 211.923 154.466 211.677 154.735 211.388C155.005 211.099 155.209 210.82 155.346 210.55L156.135 210.869C155.969 211.234 155.711 211.598 155.36 211.963C155.015 212.323 154.574 212.624 154.039 212.865C153.509 213.107 152.884 213.227 152.164 213.227ZM163.528 213.227C162.628 213.227 161.828 212.986 161.127 212.503C160.427 212.015 159.875 211.345 159.473 210.493C159.07 209.641 158.869 208.67 158.869 207.581C158.869 206.487 159.07 205.517 159.473 204.669C159.875 203.817 160.427 203.147 161.127 202.659C161.828 202.171 162.628 201.928 163.528 201.928C164.428 201.928 165.228 202.171 165.929 202.659C166.629 203.147 167.181 203.817 167.583 204.669C167.986 205.521 168.187 206.492 168.187 207.581C168.187 208.67 167.986 209.641 167.583 210.493C167.181 211.345 166.629 212.015 165.929 212.503C165.228 212.986 164.428 213.227 163.528 213.227ZM163.528 212.425C164.29 212.425 164.956 212.209 165.524 211.778C166.097 211.348 166.539 210.765 166.852 210.031C167.169 209.297 167.328 208.481 167.328 207.581C167.328 206.681 167.169 205.867 166.852 205.138C166.535 204.404 166.092 203.821 165.524 203.391C164.956 202.955 164.29 202.737 163.528 202.737C162.766 202.737 162.1 202.955 161.532 203.391C160.964 203.821 160.521 204.404 160.204 205.138C159.887 205.867 159.728 206.681 159.728 207.581C159.728 208.481 159.885 209.297 160.197 210.031C160.514 210.765 160.957 211.348 161.525 211.778C162.098 212.209 162.766 212.425 163.528 212.425ZM171.172 217.091V202.091H172.017V204.527H172.124C172.294 204.058 172.533 203.627 172.841 203.234C173.153 202.841 173.539 202.527 173.999 202.29C174.463 202.048 175.007 201.928 175.632 201.928C176.513 201.928 177.28 202.169 177.933 202.652C178.587 203.135 179.093 203.803 179.453 204.655C179.813 205.502 179.993 206.475 179.993 207.574C179.993 208.672 179.811 209.648 179.446 210.5C179.086 211.348 178.58 212.015 177.926 212.503C177.277 212.986 176.518 213.227 175.646 213.227C175.026 213.227 174.482 213.109 174.013 212.872C173.549 212.635 173.158 212.321 172.841 211.928C172.528 211.53 172.289 211.094 172.124 210.621H172.038V217.091H171.172ZM172.024 207.567C172.024 208.495 172.166 209.326 172.45 210.06C172.734 210.789 173.142 211.366 173.672 211.793C174.202 212.214 174.834 212.425 175.568 212.425C176.312 212.425 176.948 212.212 177.479 211.786C178.014 211.355 178.421 210.772 178.7 210.038C178.984 209.304 179.126 208.481 179.126 207.567C179.126 206.653 178.987 205.831 178.707 205.102C178.428 204.373 178.023 203.798 177.493 203.376C176.963 202.95 176.321 202.737 175.568 202.737C174.825 202.737 174.188 202.948 173.658 203.369C173.132 203.786 172.727 204.359 172.443 205.088C172.164 205.812 172.024 206.639 172.024 207.567ZM183.855 198.455V213H182.988V198.455H183.855ZM191.696 213.227C190.711 213.227 189.854 212.983 189.125 212.496C188.395 212.008 187.832 211.34 187.434 210.493C187.037 209.645 186.838 208.679 186.838 207.595C186.838 206.506 187.037 205.536 187.434 204.683C187.837 203.831 188.388 203.159 189.089 202.666C189.79 202.174 190.59 201.928 191.49 201.928C192.1 201.928 192.678 202.051 193.223 202.297C193.772 202.538 194.255 202.889 194.672 203.348C195.093 203.807 195.422 204.361 195.659 205.01C195.9 205.659 196.021 206.388 196.021 207.197V207.737H187.385V206.949H195.154C195.154 206.158 194.993 205.446 194.672 204.811C194.35 204.177 193.912 203.672 193.358 203.298C192.804 202.924 192.181 202.737 191.49 202.737C190.765 202.737 190.119 202.941 189.551 203.348C188.987 203.75 188.54 204.295 188.208 204.982C187.882 205.668 187.711 206.435 187.697 207.283V207.638C187.697 208.547 187.856 209.364 188.173 210.088C188.495 210.808 188.954 211.378 189.551 211.8C190.147 212.216 190.862 212.425 191.696 212.425C192.292 212.425 192.801 212.325 193.223 212.126C193.649 211.923 193.997 211.677 194.267 211.388C194.537 211.099 194.74 210.82 194.877 210.55L195.666 210.869C195.5 211.234 195.242 211.598 194.892 211.963C194.546 212.323 194.106 212.624 193.571 212.865C193.04 213.107 192.415 213.227 191.696 213.227ZM208.485 202.091V202.865H203.72V202.091H208.485ZM205.332 199.477H206.191V210.422C206.191 210.867 206.277 211.232 206.447 211.516C206.622 211.795 206.85 212.003 207.129 212.141C207.413 212.273 207.716 212.339 208.038 212.339C208.194 212.339 208.329 212.328 208.443 212.304C208.561 212.28 208.672 212.25 208.777 212.212L208.99 213C208.857 213.047 208.71 213.088 208.549 213.121C208.388 213.159 208.199 213.178 207.981 213.178C207.527 213.178 207.096 213.076 206.689 212.872C206.286 212.669 205.959 212.373 205.708 211.984C205.458 211.596 205.332 211.127 205.332 210.578V199.477ZM215.637 213.227C214.738 213.227 213.938 212.986 213.237 212.503C212.536 212.015 211.984 211.345 211.582 210.493C211.18 209.641 210.978 208.67 210.978 207.581C210.978 206.487 211.18 205.517 211.582 204.669C211.984 203.817 212.536 203.147 213.237 202.659C213.938 202.171 214.738 201.928 215.637 201.928C216.537 201.928 217.337 202.171 218.038 202.659C218.739 203.147 219.29 203.817 219.693 204.669C220.095 205.521 220.297 206.492 220.297 207.581C220.297 208.67 220.095 209.641 219.693 210.493C219.29 211.345 218.739 212.015 218.038 212.503C217.337 212.986 216.537 213.227 215.637 213.227ZM215.637 212.425C216.4 212.425 217.065 212.209 217.633 211.778C218.206 211.348 218.649 210.765 218.961 210.031C219.279 209.297 219.437 208.481 219.437 207.581C219.437 206.681 219.279 205.867 218.961 205.138C218.644 204.404 218.201 203.821 217.633 203.391C217.065 202.955 216.4 202.737 215.637 202.737C214.875 202.737 214.21 202.955 213.642 203.391C213.074 203.821 212.631 204.404 212.314 205.138C211.996 205.867 211.838 206.681 211.838 207.581C211.838 208.481 211.994 209.297 212.306 210.031C212.624 210.765 213.066 211.348 213.635 211.778C214.208 212.209 214.875 212.425 215.637 212.425ZM229.212 213V198.455H230.071V204.527H230.156C230.327 204.058 230.568 203.627 230.881 203.234C231.193 202.841 231.581 202.527 232.045 202.29C232.509 202.048 233.052 201.928 233.672 201.928C234.548 201.928 235.313 202.171 235.966 202.659C236.619 203.142 237.126 203.81 237.486 204.662C237.846 205.509 238.026 206.48 238.026 207.574C238.026 208.677 237.846 209.655 237.486 210.507C237.126 211.355 236.622 212.02 235.973 212.503C235.324 212.986 234.56 213.227 233.679 213.227C233.059 213.227 232.517 213.109 232.053 212.872C231.589 212.631 231.2 212.313 230.888 211.92C230.575 211.523 230.331 211.089 230.156 210.621H230.057V213H229.212ZM230.064 207.567C230.064 208.495 230.204 209.326 230.483 210.06C230.767 210.789 231.174 211.366 231.705 211.793C232.235 212.214 232.869 212.425 233.608 212.425C234.356 212.425 234.995 212.212 235.526 211.786C236.056 211.355 236.461 210.772 236.74 210.038C237.024 209.304 237.166 208.481 237.166 207.567C237.166 206.653 237.024 205.831 236.74 205.102C236.461 204.373 236.056 203.798 235.526 203.376C234.995 202.95 234.356 202.737 233.608 202.737C232.869 202.737 232.235 202.948 231.705 203.369C231.174 203.786 230.767 204.359 230.483 205.088C230.204 205.812 230.064 206.639 230.064 207.567ZM245.27 213.227C244.285 213.227 243.428 212.983 242.699 212.496C241.97 212.008 241.406 211.34 241.009 210.493C240.611 209.645 240.412 208.679 240.412 207.595C240.412 206.506 240.611 205.536 241.009 204.683C241.411 203.831 241.963 203.159 242.663 202.666C243.364 202.174 244.164 201.928 245.064 201.928C245.675 201.928 246.252 202.051 246.797 202.297C247.346 202.538 247.829 202.889 248.246 203.348C248.667 203.807 248.996 204.361 249.233 205.01C249.474 205.659 249.595 206.388 249.595 207.197V207.737H240.959V206.949H248.729C248.729 206.158 248.568 205.446 248.246 204.811C247.924 204.177 247.486 203.672 246.932 203.298C246.378 202.924 245.755 202.737 245.064 202.737C244.339 202.737 243.693 202.941 243.125 203.348C242.562 203.75 242.114 204.295 241.783 204.982C241.456 205.668 241.286 206.435 241.271 207.283V207.638C241.271 208.547 241.43 209.364 241.747 210.088C242.069 210.808 242.528 211.378 243.125 211.8C243.722 212.216 244.437 212.425 245.27 212.425C245.866 212.425 246.375 212.325 246.797 212.126C247.223 211.923 247.571 211.677 247.841 211.388C248.111 211.099 248.314 210.82 248.452 210.55L249.24 210.869C249.074 211.234 248.816 211.598 248.466 211.963C248.12 212.323 247.68 212.624 247.145 212.865C246.615 213.107 245.99 213.227 245.27 213.227ZM262.06 202.091V202.865H257.294V202.091H262.06ZM258.906 199.477H259.766V210.422C259.766 210.867 259.851 211.232 260.021 211.516C260.196 211.795 260.424 212.003 260.703 212.141C260.987 212.273 261.29 212.339 261.612 212.339C261.768 212.339 261.903 212.328 262.017 212.304C262.135 212.28 262.247 212.25 262.351 212.212L262.564 213C262.431 213.047 262.285 213.088 262.124 213.121C261.963 213.159 261.773 213.178 261.555 213.178C261.101 213.178 260.67 213.076 260.263 212.872C259.86 212.669 259.534 212.373 259.283 211.984C259.032 211.596 258.906 211.127 258.906 210.578V199.477ZM266.374 205.926V213H265.508V198.455H266.374V203.817H266.46C266.715 203.249 267.122 202.796 267.681 202.46C268.245 202.119 268.919 201.949 269.705 201.949C270.439 201.949 271.085 202.105 271.644 202.418C272.203 202.725 272.638 203.168 272.951 203.746C273.268 204.319 273.427 205.005 273.427 205.805V213H272.567V205.841C272.567 204.908 272.29 204.16 271.737 203.597C271.183 203.033 270.451 202.751 269.542 202.751C268.931 202.751 268.387 202.884 267.908 203.149C267.43 203.414 267.054 203.786 266.779 204.264C266.509 204.738 266.374 205.292 266.374 205.926ZM281.266 213.227C280.281 213.227 279.424 212.983 278.695 212.496C277.966 212.008 277.402 211.34 277.005 210.493C276.607 209.645 276.408 208.679 276.408 207.595C276.408 206.506 276.607 205.536 277.005 204.683C277.407 203.831 277.959 203.159 278.659 202.666C279.36 202.174 280.16 201.928 281.06 201.928C281.671 201.928 282.248 202.051 282.793 202.297C283.342 202.538 283.825 202.889 284.242 203.348C284.663 203.807 284.992 204.361 285.229 205.01C285.471 205.659 285.591 206.388 285.591 207.197V207.737H276.955V206.949H284.725C284.725 206.158 284.564 205.446 284.242 204.811C283.92 204.177 283.482 203.672 282.928 203.298C282.374 202.924 281.751 202.737 281.06 202.737C280.336 202.737 279.689 202.941 279.121 203.348C278.558 203.75 278.11 204.295 277.779 204.982C277.452 205.668 277.282 206.435 277.267 207.283V207.638C277.267 208.547 277.426 209.364 277.743 210.088C278.065 210.808 278.525 211.378 279.121 211.8C279.718 212.216 280.433 212.425 281.266 212.425C281.863 212.425 282.372 212.325 282.793 212.126C283.219 211.923 283.567 211.677 283.837 211.388C284.107 211.099 284.31 210.82 284.448 210.55L285.236 210.869C285.07 211.234 284.812 211.598 284.462 211.963C284.116 212.323 283.676 212.624 283.141 212.865C282.611 213.107 281.986 213.227 281.266 213.227ZM294.505 213V198.455H295.364V204.527H295.449C295.62 204.058 295.861 203.627 296.174 203.234C296.486 202.841 296.874 202.527 297.338 202.29C297.802 202.048 298.345 201.928 298.965 201.928C299.841 201.928 300.605 202.171 301.259 202.659C301.912 203.142 302.419 203.81 302.779 204.662C303.139 205.509 303.319 206.48 303.319 207.574C303.319 208.677 303.139 209.655 302.779 210.507C302.419 211.355 301.915 212.02 301.266 212.503C300.617 212.986 299.853 213.227 298.972 213.227C298.352 213.227 297.81 213.109 297.346 212.872C296.882 212.631 296.493 212.313 296.181 211.92C295.868 211.523 295.624 211.089 295.449 210.621H295.35V213H294.505ZM295.357 207.567C295.357 208.495 295.497 209.326 295.776 210.06C296.06 210.789 296.467 211.366 296.998 211.793C297.528 212.214 298.162 212.425 298.901 212.425C299.649 212.425 300.288 212.212 300.819 211.786C301.349 211.355 301.754 210.772 302.033 210.038C302.317 209.304 302.459 208.481 302.459 207.567C302.459 206.653 302.317 205.831 302.033 205.102C301.754 204.373 301.349 203.798 300.819 203.376C300.288 202.95 299.649 202.737 298.901 202.737C298.162 202.737 297.528 202.948 296.998 203.369C296.467 203.786 296.06 204.359 295.776 205.088C295.497 205.812 295.357 206.639 295.357 207.567ZM310.563 213.227C309.578 213.227 308.721 212.983 307.992 212.496C307.263 212.008 306.699 211.34 306.301 210.493C305.904 209.645 305.705 208.679 305.705 207.595C305.705 206.506 305.904 205.536 306.301 204.683C306.704 203.831 307.256 203.159 307.956 202.666C308.657 202.174 309.457 201.928 310.357 201.928C310.968 201.928 311.545 202.051 312.09 202.297C312.639 202.538 313.122 202.889 313.539 203.348C313.96 203.807 314.289 204.361 314.526 205.01C314.767 205.659 314.888 206.388 314.888 207.197V207.737H306.252V206.949H314.022C314.022 206.158 313.861 205.446 313.539 204.811C313.217 204.177 312.779 203.672 312.225 203.298C311.671 202.924 311.048 202.737 310.357 202.737C309.632 202.737 308.986 202.941 308.418 203.348C307.855 203.75 307.407 204.295 307.076 204.982C306.749 205.668 306.578 206.435 306.564 207.283V207.638C306.564 208.547 306.723 209.364 307.04 210.088C307.362 210.808 307.821 211.378 308.418 211.8C309.015 212.216 309.73 212.425 310.563 212.425C311.159 212.425 311.668 212.325 312.09 212.126C312.516 211.923 312.864 211.677 313.134 211.388C313.404 211.099 313.607 210.82 313.745 210.55L314.533 210.869C314.367 211.234 314.109 211.598 313.759 211.963C313.413 212.323 312.973 212.624 312.438 212.865C311.908 213.107 311.283 213.227 310.563 213.227ZM324.803 204.442L324 204.655C323.873 204.257 323.69 203.914 323.453 203.625C323.217 203.336 322.918 203.114 322.559 202.957C322.203 202.796 321.777 202.716 321.28 202.716C320.48 202.716 319.824 202.915 319.313 203.312C318.806 203.71 318.553 204.229 318.553 204.868C318.553 205.389 318.726 205.82 319.071 206.161C319.417 206.497 319.945 206.752 320.655 206.928L322.331 207.347C323.193 207.56 323.842 207.905 324.277 208.384C324.713 208.857 324.931 209.446 324.931 210.152C324.931 210.753 324.767 211.286 324.441 211.75C324.114 212.214 323.662 212.576 323.084 212.837C322.511 213.097 321.844 213.227 321.081 213.227C320.063 213.227 319.228 212.991 318.574 212.517C317.921 212.039 317.502 211.355 317.317 210.464L318.148 210.251C318.304 210.962 318.629 211.504 319.121 211.878C319.618 212.247 320.269 212.432 321.074 212.432C321.964 212.432 322.682 212.221 323.226 211.8C323.775 211.378 324.05 210.839 324.05 210.18C324.05 209.679 323.889 209.255 323.567 208.909C323.245 208.563 322.757 208.31 322.104 208.149L320.364 207.723C319.474 207.505 318.806 207.157 318.361 206.679C317.916 206.196 317.694 205.602 317.694 204.896C317.694 204.309 317.847 203.793 318.155 203.348C318.463 202.903 318.887 202.555 319.426 202.304C319.966 202.053 320.584 201.928 321.28 201.928C322.203 201.928 322.956 202.145 323.539 202.581C324.121 203.017 324.542 203.637 324.803 204.442ZM331.786 202.091V202.865H327.021V202.091H331.786ZM328.633 199.477H329.492V210.422C329.492 210.867 329.577 211.232 329.748 211.516C329.923 211.795 330.15 212.003 330.43 212.141C330.714 212.273 331.017 212.339 331.339 212.339C331.495 212.339 331.63 212.328 331.744 212.304C331.862 212.28 331.973 212.25 332.077 212.212L332.29 213C332.158 213.047 332.011 213.088 331.85 213.121C331.689 213.159 331.5 213.178 331.282 213.178C330.827 213.178 330.397 213.076 329.989 212.872C329.587 212.669 329.26 212.373 329.009 211.984C328.758 211.596 328.633 211.127 328.633 210.578V199.477ZM348.601 202.091L344.659 213H343.679L339.737 202.091H340.668L344.134 211.885H344.205L347.67 202.091H348.601ZM355.172 213.227C354.187 213.227 353.33 212.983 352.601 212.496C351.872 212.008 351.309 211.34 350.911 210.493C350.513 209.645 350.314 208.679 350.314 207.595C350.314 206.506 350.513 205.536 350.911 204.683C351.313 203.831 351.865 203.159 352.566 202.666C353.266 202.174 354.067 201.928 354.966 201.928C355.577 201.928 356.155 202.051 356.699 202.297C357.248 202.538 357.731 202.889 358.148 203.348C358.569 203.807 358.899 204.361 359.135 205.01C359.377 205.659 359.498 206.388 359.498 207.197V207.737H350.861V206.949H358.631C358.631 206.158 358.47 205.446 358.148 204.811C357.826 204.177 357.388 203.672 356.834 203.298C356.28 202.924 355.658 202.737 354.966 202.737C354.242 202.737 353.596 202.941 353.027 203.348C352.464 203.75 352.016 204.295 351.685 204.982C351.358 205.668 351.188 206.435 351.174 207.283V207.638C351.174 208.547 351.332 209.364 351.65 210.088C351.971 210.808 352.431 211.378 353.027 211.8C353.624 212.216 354.339 212.425 355.172 212.425C355.769 212.425 356.278 212.325 356.699 212.126C357.125 211.923 357.473 211.677 357.743 211.388C358.013 211.099 358.217 210.82 358.354 210.55L359.142 210.869C358.977 211.234 358.719 211.598 358.368 211.963C358.023 212.323 357.582 212.624 357.047 212.865C356.517 213.107 355.892 213.227 355.172 213.227ZM362.48 213V202.091H363.326V203.795H363.404C363.641 203.237 364.041 202.789 364.604 202.453C365.167 202.112 365.809 201.942 366.529 201.942C366.605 201.942 366.68 201.942 366.756 201.942C366.832 201.942 366.903 201.944 366.969 201.949V202.822C366.912 202.818 366.844 202.811 366.763 202.801C366.687 202.787 366.593 202.78 366.479 202.78C365.873 202.78 365.333 202.91 364.86 203.17C364.391 203.431 364.022 203.791 363.752 204.25C363.482 204.705 363.347 205.225 363.347 205.812V213H362.48ZM376.229 204.442L375.426 204.655C375.298 204.257 375.116 203.914 374.879 203.625C374.643 203.336 374.344 203.114 373.984 202.957C373.629 202.796 373.203 202.716 372.706 202.716C371.906 202.716 371.25 202.915 370.739 203.312C370.232 203.71 369.979 204.229 369.979 204.868C369.979 205.389 370.152 205.82 370.497 206.161C370.843 206.497 371.371 206.752 372.081 206.928L373.757 207.347C374.619 207.56 375.268 207.905 375.703 208.384C376.139 208.857 376.357 209.446 376.357 210.152C376.357 210.753 376.193 211.286 375.866 211.75C375.54 212.214 375.088 212.576 374.51 212.837C373.937 213.097 373.269 213.227 372.507 213.227C371.489 213.227 370.653 212.991 370 212.517C369.347 212.039 368.928 211.355 368.743 210.464L369.574 210.251C369.73 210.962 370.054 211.504 370.547 211.878C371.044 212.247 371.695 212.432 372.5 212.432C373.39 212.432 374.107 212.221 374.652 211.8C375.201 211.378 375.476 210.839 375.476 210.18C375.476 209.679 375.315 209.255 374.993 208.909C374.671 208.563 374.183 208.31 373.53 208.149L371.79 207.723C370.9 207.505 370.232 207.157 369.787 206.679C369.342 206.196 369.119 205.602 369.119 204.896C369.119 204.309 369.273 203.793 369.581 203.348C369.889 202.903 370.313 202.555 370.852 202.304C371.392 202.053 372.01 201.928 372.706 201.928C373.629 201.928 374.382 202.145 374.964 202.581C375.547 203.017 375.968 203.637 376.229 204.442ZM379.398 213V202.091H380.257V213H379.398ZM379.831 200.159C379.642 200.159 379.476 200.093 379.334 199.96C379.197 199.828 379.128 199.667 379.128 199.477C379.128 199.288 379.197 199.127 379.334 198.994C379.471 198.862 379.637 198.795 379.831 198.795C380.021 198.795 380.184 198.862 380.321 198.994C380.463 199.127 380.534 199.288 380.534 199.477C380.534 199.667 380.466 199.828 380.328 199.96C380.191 200.093 380.025 200.159 379.831 200.159ZM387.942 213.227C387.042 213.227 386.242 212.986 385.542 212.503C384.841 212.015 384.289 211.345 383.887 210.493C383.484 209.641 383.283 208.67 383.283 207.581C383.283 206.487 383.484 205.517 383.887 204.669C384.289 203.817 384.841 203.147 385.542 202.659C386.242 202.171 387.042 201.928 387.942 201.928C388.842 201.928 389.642 202.171 390.343 202.659C391.043 203.147 391.595 203.817 391.998 204.669C392.4 205.521 392.601 206.492 392.601 207.581C392.601 208.67 392.4 209.641 391.998 210.493C391.595 211.345 391.043 212.015 390.343 212.503C389.642 212.986 388.842 213.227 387.942 213.227ZM387.942 212.425C388.704 212.425 389.37 212.209 389.938 211.778C390.511 211.348 390.953 210.765 391.266 210.031C391.583 209.297 391.742 208.481 391.742 207.581C391.742 206.681 391.583 205.867 391.266 205.138C390.949 204.404 390.506 203.821 389.938 203.391C389.37 202.955 388.704 202.737 387.942 202.737C387.18 202.737 386.515 202.955 385.946 203.391C385.378 203.821 384.935 204.404 384.618 205.138C384.301 205.867 384.142 206.681 384.142 207.581C384.142 208.481 384.299 209.297 384.611 210.031C384.928 210.765 385.371 211.348 385.939 211.778C386.512 212.209 387.18 212.425 387.942 212.425ZM396.452 205.926V213H395.586V202.091H396.431V203.817H396.516C396.772 203.253 397.182 202.801 397.745 202.46C398.308 202.119 398.978 201.949 399.755 201.949C400.489 201.949 401.133 202.105 401.687 202.418C402.246 202.73 402.681 203.175 402.994 203.753C403.311 204.326 403.469 205.01 403.469 205.805V213H402.603V205.841C402.603 204.913 402.326 204.167 401.772 203.604C401.223 203.036 400.496 202.751 399.592 202.751C398.986 202.751 398.446 202.884 397.972 203.149C397.499 203.414 397.127 203.786 396.857 204.264C396.587 204.738 396.452 205.292 396.452 205.926ZM416.751 213.227C415.851 213.227 415.051 212.986 414.35 212.503C413.649 212.015 413.098 211.345 412.695 210.493C412.293 209.641 412.092 208.67 412.092 207.581C412.092 206.487 412.293 205.517 412.695 204.669C413.098 203.817 413.649 203.147 414.35 202.659C415.051 202.171 415.851 201.928 416.751 201.928C417.65 201.928 418.451 202.171 419.151 202.659C419.852 203.147 420.404 203.817 420.806 204.669C421.209 205.521 421.41 206.492 421.41 207.581C421.41 208.67 421.209 209.641 420.806 210.493C420.404 211.345 419.852 212.015 419.151 212.503C418.451 212.986 417.65 213.227 416.751 213.227ZM416.751 212.425C417.513 212.425 418.178 212.209 418.746 211.778C419.319 211.348 419.762 210.765 420.075 210.031C420.392 209.297 420.55 208.481 420.55 207.581C420.55 206.681 420.392 205.867 420.075 205.138C419.757 204.404 419.315 203.821 418.746 203.391C418.178 202.955 417.513 202.737 416.751 202.737C415.988 202.737 415.323 202.955 414.755 203.391C414.187 203.821 413.744 204.404 413.427 205.138C413.11 205.867 412.951 206.681 412.951 207.581C412.951 208.481 413.107 209.297 413.42 210.031C413.737 210.765 414.18 211.348 414.748 211.778C415.321 212.209 415.988 212.425 416.751 212.425ZM428.514 202.091V202.865H423.677V202.091H428.514ZM425.268 213V200.393C425.268 199.844 425.394 199.375 425.645 198.987C425.895 198.599 426.225 198.303 426.632 198.099C427.044 197.896 427.486 197.794 427.96 197.794C428.211 197.794 428.424 197.815 428.599 197.858C428.779 197.896 428.935 197.941 429.068 197.993L428.812 198.76C428.703 198.722 428.585 198.689 428.457 198.661C428.334 198.632 428.187 198.618 428.017 198.618C427.467 198.618 427.015 198.786 426.66 199.122C426.305 199.458 426.127 199.927 426.127 200.528L426.12 213H425.268ZM440.692 202.091V202.865H435.927V202.091H440.692ZM437.539 199.477H438.398V210.422C438.398 210.867 438.484 211.232 438.654 211.516C438.829 211.795 439.057 212.003 439.336 212.141C439.62 212.273 439.923 212.339 440.245 212.339C440.401 212.339 440.536 212.328 440.65 212.304C440.768 212.28 440.879 212.25 440.984 212.212L441.197 213C441.064 213.047 440.917 213.088 440.756 213.121C440.595 213.159 440.406 213.178 440.188 213.178C439.734 213.178 439.303 213.076 438.896 212.872C438.493 212.669 438.166 212.373 437.915 211.984C437.665 211.596 437.539 211.127 437.539 210.578V199.477ZM445.007 205.926V213H444.141V198.455H445.007V203.817H445.092C445.348 203.249 445.755 202.796 446.314 202.46C446.877 202.119 447.552 201.949 448.338 201.949C449.072 201.949 449.718 202.105 450.277 202.418C450.836 202.725 451.271 203.168 451.584 203.746C451.901 204.319 452.06 205.005 452.06 205.805V213H451.2V205.841C451.2 204.908 450.923 204.16 450.369 203.597C449.815 203.033 449.084 202.751 448.175 202.751C447.564 202.751 447.019 202.884 446.541 203.149C446.063 203.414 445.687 203.786 445.412 204.264C445.142 204.738 445.007 205.292 445.007 205.926ZM459.899 213.227C458.914 213.227 458.057 212.983 457.328 212.496C456.599 212.008 456.035 211.34 455.637 210.493C455.24 209.645 455.041 208.679 455.041 207.595C455.041 206.506 455.24 205.536 455.637 204.683C456.04 203.831 456.592 203.159 457.292 202.666C457.993 202.174 458.793 201.928 459.693 201.928C460.304 201.928 460.881 202.051 461.426 202.297C461.975 202.538 462.458 202.889 462.875 203.348C463.296 203.807 463.625 204.361 463.862 205.01C464.103 205.659 464.224 206.388 464.224 207.197V207.737H455.588V206.949H463.358C463.358 206.158 463.197 205.446 462.875 204.811C462.553 204.177 462.115 203.672 461.561 203.298C461.007 202.924 460.384 202.737 459.693 202.737C458.968 202.737 458.322 202.941 457.754 203.348C457.19 203.75 456.743 204.295 456.412 204.982C456.085 205.668 455.914 206.435 455.9 207.283V207.638C455.9 208.547 456.059 209.364 456.376 210.088C456.698 210.808 457.157 211.378 457.754 211.8C458.35 212.216 459.065 212.425 459.899 212.425C460.495 212.425 461.004 212.325 461.426 212.126C461.852 211.923 462.2 211.677 462.47 211.388C462.74 211.099 462.943 210.82 463.081 210.55L463.869 210.869C463.703 211.234 463.445 211.598 463.095 211.963C462.749 212.323 462.309 212.624 461.774 212.865C461.243 213.107 460.618 213.227 459.899 213.227ZM467.207 213V202.091H468.052V203.739H468.137C468.346 203.189 468.706 202.754 469.217 202.432C469.728 202.11 470.344 201.949 471.064 201.949C471.854 201.949 472.491 202.138 472.974 202.517C473.462 202.896 473.812 203.41 474.025 204.058H474.103C474.316 203.419 474.698 202.908 475.247 202.524C475.801 202.141 476.483 201.949 477.292 201.949C478.348 201.949 479.153 202.283 479.707 202.95C480.266 203.613 480.545 204.522 480.545 205.678V213H479.679V205.678C479.679 204.768 479.461 204.054 479.025 203.533C478.59 203.012 477.95 202.751 477.108 202.751C476.208 202.751 475.517 203.033 475.034 203.597C474.551 204.16 474.309 204.877 474.309 205.749V213H473.443V205.621C473.443 204.773 473.23 204.084 472.804 203.554C472.377 203.019 471.738 202.751 470.886 202.751C470.308 202.751 469.809 202.884 469.387 203.149C468.971 203.414 468.646 203.779 468.414 204.243C468.187 204.707 468.074 205.24 468.074 205.841V213H467.207ZM491.072 204.442L490.27 204.655C490.142 204.257 489.96 203.914 489.723 203.625C489.486 203.336 489.188 203.114 488.828 202.957C488.473 202.796 488.047 202.716 487.55 202.716C486.75 202.716 486.094 202.915 485.582 203.312C485.076 203.71 484.822 204.229 484.822 204.868C484.822 205.389 484.995 205.82 485.341 206.161C485.687 206.497 486.214 206.752 486.925 206.928L488.601 207.347C489.463 207.56 490.111 207.905 490.547 208.384C490.982 208.857 491.2 209.446 491.2 210.152C491.2 210.753 491.037 211.286 490.71 211.75C490.384 212.214 489.931 212.576 489.354 212.837C488.781 213.097 488.113 213.227 487.351 213.227C486.333 213.227 485.497 212.991 484.844 212.517C484.19 212.039 483.771 211.355 483.587 210.464L484.418 210.251C484.574 210.962 484.898 211.504 485.391 211.878C485.888 212.247 486.539 212.432 487.344 212.432C488.234 212.432 488.951 212.221 489.496 211.8C490.045 211.378 490.32 210.839 490.32 210.18C490.32 209.679 490.159 209.255 489.837 208.909C489.515 208.563 489.027 208.31 488.374 208.149L486.634 207.723C485.743 207.505 485.076 207.157 484.631 206.679C484.186 206.196 483.963 205.602 483.963 204.896C483.963 204.309 484.117 203.793 484.425 203.348C484.732 202.903 485.156 202.555 485.696 202.304C486.236 202.053 486.854 201.928 487.55 201.928C488.473 201.928 489.226 202.145 489.808 202.581C490.391 203.017 490.812 203.637 491.072 204.442ZM498.453 213.227C497.469 213.227 496.612 212.983 495.882 212.496C495.153 212.008 494.59 211.34 494.192 210.493C493.794 209.645 493.596 208.679 493.596 207.595C493.596 206.506 493.794 205.536 494.192 204.683C494.595 203.831 495.146 203.159 495.847 202.666C496.548 202.174 497.348 201.928 498.248 201.928C498.858 201.928 499.436 202.051 499.98 202.297C500.53 202.538 501.013 202.889 501.429 203.348C501.851 203.807 502.18 204.361 502.417 205.01C502.658 205.659 502.779 206.388 502.779 207.197V207.737H494.142V206.949H501.912C501.912 206.158 501.751 205.446 501.429 204.811C501.107 204.177 500.669 203.672 500.115 203.298C499.561 202.924 498.939 202.737 498.248 202.737C497.523 202.737 496.877 202.941 496.309 203.348C495.745 203.75 495.298 204.295 494.966 204.982C494.64 205.668 494.469 206.435 494.455 207.283V207.638C494.455 208.547 494.614 209.364 494.931 210.088C495.253 210.808 495.712 211.378 496.309 211.8C496.905 212.216 497.62 212.425 498.453 212.425C499.05 212.425 499.559 212.325 499.98 212.126C500.407 211.923 500.755 211.677 501.025 211.388C501.294 211.099 501.498 210.82 501.635 210.55L502.424 210.869C502.258 211.234 502 211.598 501.65 211.963C501.304 212.323 500.864 212.624 500.328 212.865C499.798 213.107 499.173 213.227 498.453 213.227ZM506.628 198.455V213H505.762V198.455H506.628ZM518.191 202.091L514.249 213H513.269L509.327 202.091H510.257L513.723 211.885H513.794L517.26 202.091H518.191ZM524.762 213.227C523.777 213.227 522.92 212.983 522.191 212.496C521.462 212.008 520.898 211.34 520.501 210.493C520.103 209.645 519.904 208.679 519.904 207.595C519.904 206.506 520.103 205.536 520.501 204.683C520.903 203.831 521.455 203.159 522.156 202.666C522.856 202.174 523.656 201.928 524.556 201.928C525.167 201.928 525.745 202.051 526.289 202.297C526.838 202.538 527.321 202.889 527.738 203.348C528.159 203.807 528.488 204.361 528.725 205.01C528.967 205.659 529.087 206.388 529.087 207.197V207.737H520.451V206.949H528.221C528.221 206.158 528.06 205.446 527.738 204.811C527.416 204.177 526.978 203.672 526.424 203.298C525.87 202.924 525.247 202.737 524.556 202.737C523.832 202.737 523.185 202.941 522.617 203.348C522.054 203.75 521.606 204.295 521.275 204.982C520.948 205.668 520.778 206.435 520.763 207.283V207.638C520.763 208.547 520.922 209.364 521.239 210.088C521.561 210.808 522.021 211.378 522.617 211.8C523.214 212.216 523.929 212.425 524.762 212.425C525.359 212.425 525.868 212.325 526.289 212.126C526.715 211.923 527.063 211.677 527.333 211.388C527.603 211.099 527.807 210.82 527.944 210.55L528.732 210.869C528.567 211.234 528.308 211.598 527.958 211.963C527.612 212.323 527.172 212.624 526.637 212.865C526.107 213.107 525.482 213.227 524.762 213.227ZM539.002 204.442L538.2 204.655C538.072 204.257 537.889 203.914 537.653 203.625C537.416 203.336 537.118 203.114 536.758 202.957C536.403 202.796 535.977 202.716 535.479 202.716C534.679 202.716 534.023 202.915 533.512 203.312C533.005 203.71 532.752 204.229 532.752 204.868C532.752 205.389 532.925 205.82 533.271 206.161C533.616 206.497 534.144 206.752 534.854 206.928L536.531 207.347C537.392 207.56 538.041 207.905 538.477 208.384C538.912 208.857 539.13 209.446 539.13 210.152C539.13 210.753 538.967 211.286 538.64 211.75C538.313 212.214 537.861 212.576 537.283 212.837C536.71 213.097 536.043 213.227 535.281 213.227C534.263 213.227 533.427 212.991 532.773 212.517C532.12 212.039 531.701 211.355 531.516 210.464L532.347 210.251C532.504 210.962 532.828 211.504 533.32 211.878C533.817 212.247 534.469 212.432 535.273 212.432C536.164 212.432 536.881 212.221 537.425 211.8C537.975 211.378 538.249 210.839 538.249 210.18C538.249 209.679 538.088 209.255 537.766 208.909C537.444 208.563 536.957 208.31 536.303 208.149L534.563 207.723C533.673 207.505 533.005 207.157 532.56 206.679C532.115 206.196 531.893 205.602 531.893 204.896C531.893 204.309 532.047 203.793 532.354 203.348C532.662 202.903 533.086 202.555 533.626 202.304C534.165 202.053 534.783 201.928 535.479 201.928C536.403 201.928 537.156 202.145 537.738 202.581C538.32 203.017 538.742 203.637 539.002 204.442Z" fill="#2C4557"/>
</g>
<defs>
<clipPath id="clip0_15_113">
<rect width="557" height="255" fill="white"/>
</clipPath>
</defs>
</svg>
